<svg width="46" height="46" viewBox="0 0 46 46" fill="none" xmlns="http://www.w3.org/2000/svg">
<path d="M44.2333 20.7833L25.2166 1.76665C24.6333 1.18331 23.8166 0.833313 22.9999 0.833313C22.1833 0.833313 21.3666 1.18331 20.7833 1.76665L16.6999 5.84998L21.4833 10.6333C21.9499 10.4 22.4166 10.2833 22.9999 10.2833C24.9833 10.2833 26.4999 11.8 26.4999 13.7833C26.4999 14.3666 26.3833 14.8333 26.1499 15.3L30.8166 19.9666C31.2833 19.7333 31.7499 19.6166 32.3333 19.6166C34.3166 19.6166 35.8333 21.1333 35.8333 23.1166C35.8333 25.1 34.3166 26.6166 32.3333 26.6166C30.3499 26.6166 28.8333 25.1 28.8333 23.1166C28.8333 22.5333 28.9499 22.0666 29.1833 21.6L24.5166 16.9333C24.3999 16.9333 24.2833 17.05 24.1666 17.05V29.1833C25.5666 29.65 26.4999 30.9333 26.4999 32.45C26.4999 34.4333 24.9833 35.95 22.9999 35.95C21.0166 35.95 19.4999 34.4333 19.4999 32.45C19.4999 30.9333 20.4333 29.65 21.8333 29.1833V16.9333C20.4333 16.4666 19.4999 15.1833 19.4999 13.6666C19.4999 13.0833 19.6166 12.6166 19.8499 12.15L15.0666 7.36665L1.76659 20.7833C1.18325 21.3666 0.833252 22.1833 0.833252 23C0.833252 23.8166 1.18325 24.6333 1.76659 25.2166L20.7833 44.2333C21.3666 44.8167 22.1833 45.1666 22.9999 45.1666C23.8166 45.1666 24.6333 44.8167 25.2166 44.2333L44.2333 25.2166C44.8166 24.6333 45.1666 23.8166 45.1666 23C45.1666 22.1833 44.8166 21.3666 44.2333 20.7833Z" fill="black"/>
</svg>
