<svg width="56" height="56" viewBox="0 0 56 56" fill="none" xmlns="http://www.w3.org/2000/svg">
<path d="M46.5116 30.282C44.7172 30.2913 43.1632 30.7218 41.8612 31.3646C41.3852 30.4138 40.9022 29.5773 40.8217 28.9555C40.7272 28.2298 40.6176 27.7958 40.7319 26.9313C40.8462 26.0668 41.3467 24.8418 41.3397 24.7496C41.3327 24.6575 41.2277 24.2176 40.1929 24.2095C39.1581 24.2025 38.2726 24.409 38.1687 24.682C38.0649 24.955 37.8654 25.5698 37.7417 26.2115C37.5609 27.1495 35.6756 30.4966 34.6057 32.2466C34.2557 31.563 33.9582 30.961 33.8964 30.485C33.8019 29.7593 33.6922 29.3253 33.8066 28.4608C33.9209 27.5963 34.4214 26.3713 34.4144 26.2791C34.4074 26.187 34.3024 25.7471 33.2676 25.739C32.2327 25.732 31.3472 25.9385 31.2434 26.2115C31.1396 26.4845 31.0276 27.1226 30.8164 27.741C30.6041 28.3581 28.0992 33.9406 27.4424 35.3885C27.1076 36.1258 26.8171 36.7185 26.6117 37.1221L26.6106 37.1198C26.6106 37.1198 26.5977 37.1466 26.5767 37.1921C26.4006 37.5363 26.2967 37.7265 26.2967 37.7265C26.2967 37.7265 26.2979 37.7288 26.3002 37.7335C26.1602 37.9866 26.0109 38.2211 25.9374 38.2211C25.8861 38.2211 25.7822 37.548 25.9596 36.624C26.3329 34.6873 27.2277 31.668 27.2196 31.563C27.2149 31.5093 27.3864 30.9831 26.6351 30.7078C25.9047 30.4406 25.6446 30.8863 25.5781 30.8875C25.5139 30.8886 25.4661 31.045 25.4661 31.045C25.4661 31.045 26.2792 27.6488 23.9144 27.6488C22.4351 27.6488 20.3864 29.267 19.3772 30.7335C18.7402 31.0811 17.3764 31.8255 15.9309 32.62C15.3756 32.9256 14.8086 33.2371 14.2707 33.5335C14.2346 33.4926 14.1972 33.453 14.1599 33.4121C11.2911 30.352 5.98974 28.1878 6.21374 24.073C6.29541 22.5773 6.81574 18.6386 16.4022 13.8623C24.2551 9.94931 30.5422 11.0261 31.6284 13.412C33.1801 16.8221 28.2684 23.1583 20.1134 24.073C17.0066 24.4218 15.3697 23.2166 14.9626 22.7686C14.5344 22.2961 14.4702 22.2751 14.3104 22.3638C14.0502 22.5085 14.2147 22.925 14.3104 23.1735C14.5542 23.807 15.5529 24.9305 17.2562 25.4905C18.7554 25.9828 22.4036 26.2523 26.8147 24.5455C31.7567 22.6345 35.6149 17.3168 34.4809 12.873C33.3282 8.35331 25.8336 6.86698 18.7402 9.38698C14.5134 10.8873 9.94357 13.2416 6.65707 16.3146C2.7499 19.9686 2.12691 23.1501 2.38357 24.479C3.29591 29.2016 9.80474 32.277 12.4111 34.5555C12.2827 34.6266 12.1614 34.6931 12.0517 34.7538C10.7451 35.4001 5.78324 37.9971 4.5419 40.74C3.13374 43.8515 4.76591 46.0845 5.84624 46.3855C9.1934 47.3165 12.6281 45.6411 14.4749 42.8878C16.3206 40.1356 16.0954 36.5505 15.2484 34.9148C15.2379 34.895 15.2262 34.8751 15.2157 34.8541C15.5529 34.6546 15.8971 34.4516 16.2377 34.251C16.9027 33.8601 17.5561 33.4961 18.1219 33.1881C17.8046 34.0561 17.5724 35.098 17.4522 36.6018C17.3099 38.3681 18.0344 40.6513 18.9817 41.5496C19.3994 41.9451 19.9011 41.9545 20.2184 41.9545C21.3209 41.9545 21.8237 41.0375 22.3779 39.9525C23.0569 38.6225 23.6601 37.0731 23.6601 37.0731C23.6601 37.0731 22.9041 41.2568 24.9644 41.2568C25.7157 41.2568 26.4706 40.2826 26.8077 39.7868C26.8089 39.7926 26.8089 39.795 26.8089 39.795C26.8089 39.795 26.8287 39.7623 26.8672 39.6981C26.9454 39.5791 26.9897 39.5033 26.9897 39.5033C26.9897 39.5033 26.9909 39.4951 26.9932 39.4811C27.2954 38.9573 27.9651 37.7626 28.9684 35.7921C30.2657 33.2465 31.5094 30.0568 31.5094 30.0568C31.5094 30.0568 31.6249 30.8361 32.0041 32.1265C32.2269 32.8848 32.7006 33.7236 33.0751 34.5286C32.7741 34.9463 32.5897 35.1855 32.5897 35.1855C32.5897 35.1855 32.5909 35.1901 32.5944 35.1983C32.3541 35.518 32.0846 35.8621 31.8022 36.1981C30.7779 37.4173 29.5587 38.8103 29.3954 39.2116C29.2029 39.6853 29.2484 40.033 29.6206 40.3141C29.8924 40.5183 30.3754 40.551 30.8806 40.5171C31.8011 40.4553 32.4474 40.2266 32.7671 40.0878C33.2652 39.9116 33.8451 39.6351 34.3887 39.235C35.3932 38.4965 35.9987 37.4406 35.9404 36.0406C35.9077 35.2695 35.6627 34.5053 35.3512 33.7843C35.4422 33.6536 35.5332 33.5206 35.6254 33.3876C37.2086 31.073 38.4371 28.5296 38.4371 28.5296C38.4371 28.5296 38.5526 29.309 38.9317 30.5993C39.1231 31.2515 39.5022 31.9643 39.8429 32.662C38.3542 33.8718 37.4314 35.2776 37.1106 36.1993C36.5179 37.905 36.9822 38.6773 37.8526 38.8535C38.2469 38.9328 38.8046 38.752 39.2234 38.5746C39.7449 38.402 40.3714 38.1138 40.9571 37.6833C41.9616 36.9448 42.9276 35.9111 42.8692 34.5123C42.8424 33.8753 42.6697 33.243 42.4352 32.6363C43.6976 32.1101 45.3309 31.8185 47.4122 32.0611C51.8771 32.5826 52.7521 35.3698 52.5852 36.5365C52.4172 37.7031 51.4816 38.3448 51.1677 38.5385C50.8551 38.7321 50.7594 38.7998 50.7851 38.9433C50.8236 39.1521 50.9682 39.1451 51.2354 39.0996C51.6029 39.0378 53.5792 38.1511 53.6644 35.9975C53.7706 33.2605 51.1514 30.2575 46.5116 30.282ZM12.0984 41.8833C10.6191 43.4968 8.55407 44.1058 7.6674 43.5925C6.71074 43.0383 7.0899 40.663 8.90407 38.9503C10.0101 37.9073 11.4381 36.946 12.3854 36.3545C12.6012 36.225 12.9174 36.0348 13.3024 35.8038C13.3666 35.7676 13.4027 35.7478 13.4027 35.7478L13.4016 35.7455C13.4762 35.7011 13.5521 35.6556 13.6302 35.6078C14.2917 38.045 13.6512 40.1905 12.0984 41.8833ZM22.8726 34.5601C22.3581 35.8155 21.2801 39.0285 20.6232 38.8558C20.0597 38.7076 19.7167 36.2658 20.5112 33.8625C20.9102 32.6526 21.7642 31.2071 22.2659 30.646C23.0732 29.743 23.9622 29.4478 24.1781 29.8141C24.4522 30.2808 23.1957 33.7726 22.8726 34.5601ZM31.7731 38.8068C31.5549 38.9211 31.3542 38.9923 31.2621 38.9375C31.1932 38.8966 31.3519 38.7461 31.3519 38.7461C31.3519 38.7461 32.4649 37.548 32.9036 37.0031C33.1591 36.6858 33.4542 36.309 33.7762 35.889C33.7786 35.931 33.7797 35.973 33.7797 36.0138C33.7774 37.4488 32.3914 38.4171 31.7731 38.8068ZM38.6296 37.2435C38.4662 37.128 38.4942 36.7535 39.0297 35.5856C39.2397 35.1271 39.7204 34.356 40.5534 33.6186C40.6502 33.922 40.7086 34.2125 40.7074 34.4831C40.6969 36.2891 39.4089 36.9635 38.6296 37.2435Z" fill="black"/>
</svg>
