<svg width="56" height="56" viewBox="0 0 56 56" fill="none" xmlns="http://www.w3.org/2000/svg">
<path fill-rule="evenodd" clip-rule="evenodd" d="M9.85483 48.6535L8.33583 8.20402C8.288 6.86819 9.31467 5.73769 10.6482 5.65602L37.6075 3.97019L39.6667 4.66669L42.3442 3.67385L45.0462 3.50469C46.403 3.41835 47.5732 4.44852 47.6607 5.80535C47.6642 5.85785 47.6653 5.91152 47.6653 5.96519V50.0384C47.6642 51.3999 46.5593 52.5024 45.1978 52.5012C45.1617 52.5012 45.1255 52.5 45.0905 52.4989L12.2068 51.0219C10.9258 50.9647 9.90383 49.9357 9.85483 48.6535Z" fill="black"/>
<path fill-rule="evenodd" clip-rule="evenodd" d="M42.3419 3.67383L37.6088 3.96783L37.3789 9.52233C37.3708 9.72533 37.5283 9.89566 37.7313 9.90499C37.8164 9.90849 37.8993 9.88283 37.9669 9.83149L40.1229 8.19466L41.9453 9.63083C42.1039 9.75683 42.3361 9.72999 42.4609 9.57133C42.5146 9.50249 42.5426 9.41733 42.5403 9.32983L42.3443 3.67499L42.3419 3.67383ZM38.6576 22.2693C37.7931 22.9425 31.3344 23.401 31.3344 22.4432C31.4721 18.7857 29.8353 18.6258 28.9241 18.6258C28.0619 18.6258 26.6059 18.886 26.6059 20.846C26.6059 22.8422 28.7328 23.9692 31.2294 25.2922C34.7749 27.1717 39.0694 29.4478 39.0694 35.1703C39.0694 40.6583 34.6104 43.687 28.9264 43.687C23.0593 43.687 17.9306 41.3128 18.5093 33.0832C18.7368 32.1183 26.1976 32.3482 26.1976 33.0832C26.1043 36.4793 26.8789 37.478 28.8343 37.478C30.3358 37.478 31.0171 36.6497 31.0171 35.2578C31.0171 33.1485 28.8028 31.9037 26.2524 30.4733C22.8003 28.5355 18.7379 26.2547 18.7379 21.0187C18.7379 15.7955 22.3301 12.3118 28.7433 12.3118C35.1564 12.3118 38.6576 15.743 38.6576 22.2693Z" fill="white"/>
</svg>
